<svg aria-hidden="true" style="position: absolute; width: 0; height: 0; overflow: hidden;" version="1.1" xmlns="http://www.w3.org/2000/svg" xmlns:xlink="http://www.w3.org/1999/xlink">
<defs>
<symbol id="icon-design" viewBox="0 0 32 32">
<title>icon-design</title>
<path d="M31.553 4.538l-4.091-4.091c-0.596-0.596-1.565-0.596-2.161 0l-7.703 7.703c-0.193 0.193-0.193 0.506 0 0.699s0.506 0.193 0.699 0l7.703-7.703c0.102-0.102 0.238-0.158 0.382-0.158s0.28 0.056 0.382 0.158l4.092 4.091c0.102 0.102 0.158 0.238 0.158 0.382s-0.056 0.28-0.158 0.382l-1.004 1.004-2.631-2.63c-0.193-0.193-0.506-0.193-0.699 0s-0.193 0.506 0 0.699l2.631 2.631-1.147 1.147-1.156-1.156c-0.193-0.193-0.506-0.193-0.699 0s-0.193 0.506 0 0.699l1.156 1.156-1.147 1.147-1.156-1.156c-0.193-0.193-0.506-0.193-0.699 0s-0.193 0.506 0 0.699l1.156 1.156-1.147 1.147-2.631-2.631c-0.193-0.193-0.506-0.193-0.699 0s-0.193 0.506 0 0.699l2.631 2.63-1.147 1.147-1.156-1.156c-0.193-0.193-0.505-0.193-0.698 0s-0.193 0.506 0 0.699l1.156 1.156-0.97 0.97-4.856-4.855 0.903-0.903c0.193-0.193 0.193-0.506 0-0.699s-0.506-0.193-0.699 0l-0.903 0.903-9.11-9.11c-0.634-0.634-1.476-0.983-2.372-0.983s-1.739 0.349-2.372 0.983-0.983 1.476-0.983 2.372c0 0.896 0.349 1.739 0.982 2.372l9.11 9.11-10.053 10.054c-0.596 0.596-0.596 1.565 0 2.161l4.091 4.091c0.288 0.288 0.672 0.447 1.081 0.447s0.792-0.159 1.081-0.447l10.054-10.054 0.716 0.716c0.193 0.193 0.506 0.193 0.699 0s0.193-0.506 0-0.699l-0.988-0.988c-0.019-0.031-0.042-0.060-0.068-0.086s-0.055-0.049-0.086-0.068l-10.701-10.701 1.324-1.324 0.819 0.819c0.096 0.096 0.223 0.145 0.349 0.145s0.253-0.048 0.349-0.145c0.193-0.193 0.193-0.506 0-0.699l-0.819-0.819 1.324-1.324 5.224 5.224c0 0 0 0 0.001 0.001s0 0 0.001 0.001l5.505 5.505c0.014 0.018 0.028 0.036 0.044 0.052s0.034 0.031 0.052 0.044l7.329 7.329-1.324 1.324-7.395-7.395c-0.004-0.005-0.008-0.010-0.013-0.014l-2.949-2.949c-0.005-0.005-0.010-0.009-0.015-0.014l-5.209-5.209c-0.193-0.193-0.506-0.193-0.699 0s-0.193 0.506 0 0.699l15.58 15.58-1.324 1.325-4.693-4.694c-0.193-0.193-0.506-0.193-0.699 0s-0.193 0.506 0 0.699l5.043 5.043c0.048 0.048 0.107 0.087 0.17 0.111l5.967 2.317c0.094 0.036 0.192 0.054 0.29 0.054 0.209 0 0.414-0.082 0.567-0.235 0.224-0.225 0.295-0.561 0.18-0.857l-2.319-5.965c-0.024-0.063-0.063-0.123-0.111-0.17l-7.377-7.378 10.055-10.055c0.596-0.596 0.596-1.565 0-2.161zM16.055 20.8l-0.969 0.969-1.156-1.156c-0.193-0.193-0.506-0.193-0.699 0s-0.193 0.506 0 0.699l1.156 1.156-1.147 1.147-2.631-2.631c-0.193-0.193-0.506-0.193-0.699 0s-0.193 0.506 0 0.699l2.631 2.63-1.147 1.147-1.156-1.156c-0.193-0.193-0.506-0.193-0.699 0s-0.193 0.506 0 0.699l1.156 1.156-1.147 1.147-1.156-1.156c-0.193-0.193-0.506-0.193-0.699 0s-0.193 0.506 0 0.699l1.156 1.156-1.147 1.147-2.63-2.63c-0.193-0.193-0.506-0.193-0.699 0s-0.193 0.505 0 0.699l2.63 2.631-1.004 1.004c-0.102 0.102-0.238 0.158-0.382 0.158s-0.28-0.056-0.382-0.158l-4.091-4.092c-0.211-0.211-0.211-0.554 0-0.765l10.053-10.053 4.856 4.856zM2.089 5.437c-0.923-0.923-0.923-2.425 0-3.347s2.425-0.923 3.347 0l1.561 1.561-3.347 3.347-1.561-1.561zM7.3 7.3c0 0 0 0 0 0s-0 0.001-0.001 0.001l-1.673 1.673-1.277-1.277 3.347-3.347 1.277 1.277-1.673 1.673zM30.231 30.23l-4.866-1.889 2.975-2.975 1.891 4.864z"></path>
</symbol>
<symbol id="icon-development" viewBox="0 0 32 32">
<title>icon-development</title>
<path d="M31.499 0.267h-30.998c-0.277 0-0.501 0.224-0.501 0.501v30.464c0 0.276 0.224 0.501 0.501 0.501h30.998c0.276 0 0.501-0.224 0.501-0.501v-30.464c0-0.277-0.224-0.501-0.501-0.501zM30.998 30.731h-29.996v-23.048h29.996l0 23.048zM30.998 6.681h-29.996v-5.411h29.996l0 5.411z"></path>
<path d="M26.689 2.405h-5.879c-0.277 0-0.501 0.224-0.501 0.501s0.224 0.501 0.501 0.501h5.879c0.277 0 0.501-0.224 0.501-0.501s-0.224-0.501-0.501-0.501z"></path>
<path d="M29.361 2.405h-1.069c-0.277 0-0.501 0.224-0.501 0.501s0.224 0.501 0.501 0.501h1.069c0.277 0 0.501-0.224 0.501-0.501s-0.224-0.501-0.501-0.501z"></path>
<path d="M16.534 1.871c-1.16 0-2.104 0.944-2.104 2.104s0.944 2.104 2.104 2.104 2.104-0.944 2.104-2.104c0-1.161-0.944-2.104-2.104-2.104zM16.534 5.077c-0.608 0-1.102-0.494-1.102-1.102s0.494-1.102 1.102-1.102 1.102 0.494 1.102 1.102-0.495 1.102-1.102 1.102z"></path>
<path d="M10.656 1.871c-1.161 0-2.104 0.944-2.104 2.104s0.944 2.104 2.104 2.104 2.104-0.944 2.104-2.104c0-1.161-0.944-2.104-2.104-2.104zM10.656 5.077c-0.608 0-1.102-0.494-1.102-1.102s0.495-1.102 1.102-1.102 1.102 0.494 1.102 1.102-0.495 1.102-1.102 1.102z"></path>
<path d="M4.777 1.871c-1.16 0-2.104 0.944-2.104 2.104s0.944 2.104 2.104 2.104 2.104-0.944 2.104-2.104c0-1.161-0.944-2.104-2.104-2.104zM4.777 5.077c-0.608 0-1.102-0.494-1.102-1.102s0.494-1.102 1.102-1.102 1.102 0.494 1.102 1.102-0.494 1.102-1.102 1.102z"></path>
<path d="M10.555 14.504c0.011-0.401-0.135-0.783-0.412-1.074s-0.649-0.458-1.051-0.469c-0.4-0.011-0.783 0.135-1.074 0.412l-5.077 4.809c-0.304 0.288-0.475 0.694-0.469 1.113s0.189 0.82 0.5 1.099l5.077 4.543c0.276 0.247 0.632 0.383 1.002 0.383v0c0.428 0 0.836-0.182 1.121-0.501 0.553-0.618 0.5-1.57-0.118-2.123l-3.86-3.454 3.892-3.687c0.291-0.276 0.457-0.649 0.468-1.050zM9.397 14.827l-4.287 4.061c-0.101 0.096-0.158 0.231-0.156 0.371s0.062 0.273 0.167 0.366l4.266 3.817c0.206 0.184 0.224 0.502 0.039 0.708-0.096 0.108-0.229 0.167-0.374 0.167-0.123 0-0.242-0.045-0.334-0.128l-5.077-4.543c-0.104-0.093-0.165-0.227-0.167-0.366s0.055-0.275 0.156-0.371l5.077-4.81c0.094-0.089 0.216-0.138 0.344-0.138 0.004 0 0.009 0 0.014 0 0.134 0.004 0.258 0.059 0.35 0.156s0.141 0.224 0.138 0.358c-0.004 0.134-0.060 0.259-0.156 0.35z"></path>
<path d="M29.059 18.182l-5.077-4.81c-0.602-0.57-1.555-0.544-2.125 0.057s-0.544 1.555 0.058 2.125l3.892 3.687-3.86 3.454c-0.618 0.553-0.671 1.505-0.118 2.123 0.285 0.318 0.693 0.501 1.121 0.501v0c0.37 0 0.726-0.136 1.002-0.383l5.077-4.543c0.312-0.279 0.495-0.68 0.5-1.099s-0.165-0.824-0.469-1.112zM28.359 19.647l-5.077 4.543c-0.092 0.083-0.211 0.128-0.334 0.128v0c-0.145 0-0.277-0.059-0.374-0.167-0.184-0.206-0.167-0.524 0.039-0.708l4.266-3.817c0.105-0.093 0.165-0.226 0.167-0.366s-0.055-0.274-0.156-0.371l-4.287-4.061c-0.201-0.19-0.209-0.508-0.020-0.708 0.099-0.104 0.231-0.156 0.364-0.156 0.124 0 0.248 0.045 0.344 0.137l5.077 4.81c0.101 0.096 0.158 0.231 0.156 0.371v0 0c-0.002 0.14-0.063 0.273-0.167 0.366z"></path>
<path d="M19.856 14.607c-0.104-0.388-0.353-0.712-0.701-0.912v0c-0.718-0.413-1.639-0.165-2.052 0.553l-5.078 8.819c-0.413 0.718-0.166 1.639 0.553 2.052 0.228 0.131 0.487 0.201 0.749 0.201 0.536 0 1.036-0.289 1.303-0.753l5.077-8.819c0.2-0.348 0.253-0.753 0.149-1.14zM18.839 15.248l-5.077 8.819c-0.089 0.155-0.256 0.251-0.435 0.251-0.088 0-0.172-0.022-0.249-0.067-0.24-0.138-0.322-0.445-0.184-0.684l5.077-8.819c0.093-0.161 0.262-0.251 0.435-0.251 0.085 0 0.171 0.021 0.249 0.067 0.116 0.067 0.199 0.175 0.234 0.304s0.017 0.265-0.049 0.38z"></path>
</symbol>
<symbol id="icon-left" viewBox="0 0 477.175 477.175">
<title>icon-left</title>
<path d="M145.188,238.575l215.5-215.5c5.3-5.3,5.3-13.8,0-19.1s-13.8-5.3-19.1,0l-225.1,225.1c-5.3,5.3-5.3,13.8,0,19.1l225.1,225
		c2.6,2.6,6.1,4,9.5,4s6.9-1.3,9.5-4c5.3-5.3,5.3-13.8,0-19.1L145.188,238.575z"/>
</symbol>
</defs>
</svg>
