<svg aria-hidden="true" style="position:absolute;width:0;height:0" xmlns="http://www.w3.org/2000/svg" overflow="hidden"><defs><symbol id="icon-design" viewBox="0 0 32 32"><path d="M31.553 4.538L27.462.447a1.53 1.53 0 0 0-2.161 0L17.598 8.15a.494.494 0 0 0 .699.699L26 1.146a.537.537 0 0 1 .764 0l4.092 4.091a.537.537 0 0 1 0 .764l-1.004 1.004-2.631-2.63a.494.494 0 0 0-.699.699l2.631 2.631-1.147 1.147-1.156-1.156a.494.494 0 0 0-.699.699l1.156 1.156-1.147 1.147-1.156-1.156a.494.494 0 0 0-.699.699l1.156 1.156-1.147 1.147-2.631-2.631a.494.494 0 0 0-.699.699l2.631 2.63-1.147 1.147-1.156-1.156a.493.493 0 1 0-.698.699l1.156 1.156-.97.97-4.856-4.855.903-.903a.494.494 0 0 0-.699-.699l-.903.903-9.11-9.11C5.501.76 4.659.411 3.763.411s-1.739.349-2.372.983S.408 2.87.408 3.766c0 .896.349 1.739.982 2.372l9.11 9.11L.447 25.302a1.53 1.53 0 0 0 0 2.161l4.091 4.091c.288.288.672.447 1.081.447s.792-.159 1.081-.447L16.754 21.5l.716.716a.494.494 0 0 0 .699-.699l-.988-.988a.468.468 0 0 0-.154-.154L6.326 9.674 7.65 8.35l.819.819a.494.494 0 1 0 .698-.699l-.819-.819 1.324-1.324 5.224 5.224.001.001.001.001 5.505 5.505c.014.018.028.036.044.052s.034.031.052.044l7.329 7.329-1.324 1.324-7.395-7.395a.086.086 0 0 0-.013-.014l-2.949-2.949-.015-.014-5.209-5.209a.494.494 0 0 0-.699.699l15.58 15.58-1.324 1.325-4.693-4.694a.494.494 0 0 0-.699.699l5.043 5.043a.49.49 0 0 0 .17.111l5.967 2.317a.802.802 0 0 0 1.037-1.038l-2.319-5.965a.482.482 0 0 0-.111-.17l-7.377-7.378L31.553 6.7a1.53 1.53 0 0 0 0-2.161zM16.055 20.8l-.969.969-1.156-1.156a.494.494 0 0 0-.699.699l1.156 1.156-1.147 1.147-2.631-2.631a.494.494 0 0 0-.699.699l2.631 2.63-1.147 1.147-1.156-1.156a.494.494 0 0 0-.699.699l1.156 1.156-1.147 1.147-1.156-1.156a.494.494 0 0 0-.699.699l1.156 1.156-1.147 1.147-2.63-2.63a.494.494 0 0 0-.699.699l2.63 2.631-1.004 1.004a.537.537 0 0 1-.764 0l-4.091-4.092a.541.541 0 0 1 0-.765l10.053-10.053 4.856 4.856zM2.089 5.437c-.923-.923-.923-2.425 0-3.347s2.425-.923 3.347 0l1.561 1.561L3.65 6.998 2.089 5.437zM7.3 7.3l-.001.001-1.673 1.673-1.277-1.277L7.696 4.35l1.277 1.277L7.3 7.3zm22.931 22.93l-4.866-1.889 2.975-2.975 1.891 4.864z"/></symbol><symbol id="icon-development" viewBox="0 0 32 32"><path d="M31.499.267H.501A.5.5 0 0 0 0 .768v30.464c0 .276.224.501.501.501h30.998a.501.501 0 0 0 .501-.501V.768a.5.5 0 0 0-.501-.501zm-.501 30.464H1.002V7.683h29.996v23.048zm0-24.05H1.002V1.27h29.996v5.411z"/><path d="M26.689 2.405H20.81a.5.5 0 1 0 0 1.002h5.879a.5.5 0 1 0 0-1.002zm2.672 0h-1.069a.5.5 0 1 0 0 1.002h1.069a.5.5 0 1 0 0-1.002zm-12.827-.534c-1.16 0-2.104.944-2.104 2.104s.944 2.104 2.104 2.104 2.104-.944 2.104-2.104a2.106 2.106 0 0 0-2.104-2.104zm0 3.206a1.103 1.103 0 1 1 .002-2.206 1.103 1.103 0 0 1-.002 2.206zm-5.878-3.206c-1.161 0-2.104.944-2.104 2.104s.944 2.104 2.104 2.104 2.104-.944 2.104-2.104a2.106 2.106 0 0 0-2.104-2.104zm0 3.206a1.103 1.103 0 0 1 0-2.204c.607 0 1.102.494 1.102 1.102s-.495 1.102-1.102 1.102zM4.777 1.871c-1.16 0-2.104.944-2.104 2.104s.944 2.104 2.104 2.104 2.104-.944 2.104-2.104a2.106 2.106 0 0 0-2.104-2.104zm0 3.206a1.103 1.103 0 1 1 .002-2.206 1.103 1.103 0 0 1-.002 2.206zm5.778 9.427c.011-.401-.135-.783-.412-1.074s-.649-.458-1.051-.469a1.49 1.49 0 0 0-1.074.412l-5.077 4.809a1.508 1.508 0 0 0 .031 2.212l5.077 4.543a1.503 1.503 0 0 0 2.005-2.241l-3.86-3.454 3.892-3.687c.291-.276.457-.649.468-1.05zm-1.158.323L5.11 18.888a.503.503 0 0 0 .011.737l4.266 3.817a.501.501 0 1 1-.669.747l-5.077-4.543a.503.503 0 0 1-.011-.737l5.077-4.81a.499.499 0 0 1 .344-.138h.014a.499.499 0 0 1 .488.514.501.501 0 0 1-.156.35zm19.662 3.355l-5.077-4.81c-.602-.57-1.555-.544-2.125.057s-.544 1.555.058 2.125l3.892 3.687-3.86 3.454a1.505 1.505 0 0 0 1.003 2.624 1.5 1.5 0 0 0 1.002-.383l5.077-4.543a1.503 1.503 0 0 0 .031-2.211zm-.7 1.465l-5.077 4.543a.498.498 0 0 1-.334.128.502.502 0 0 1-.335-.875l4.266-3.817a.498.498 0 0 0 .011-.737l-4.287-4.061a.502.502 0 0 1 .344-.864c.124 0 .248.045.344.137l5.077 4.81a.501.501 0 0 1-.011.737zm-8.503-5.04a1.49 1.49 0 0 0-.701-.912 1.505 1.505 0 0 0-2.052.553l-5.078 8.819a1.504 1.504 0 0 0 2.605 1.5l5.077-8.819c.2-.348.253-.753.149-1.14zm-1.017.641l-5.077 8.819a.503.503 0 0 1-.684.184.5.5 0 0 1-.184-.684l5.077-8.819a.502.502 0 0 1 .869.5z"/></symbol><symbol id="icon-left" viewBox="0 0 477.175 477.175"><path d="M145.188 238.575l215.5-215.5c5.3-5.3 5.3-13.8 0-19.1s-13.8-5.3-19.1 0l-225.1 225.1c-5.3 5.3-5.3 13.8 0 19.1l225.1 225c2.6 2.6 6.1 4 9.5 4s6.9-1.3 9.5-4c5.3-5.3 5.3-13.8 0-19.1l-215.4-215.5z"/></symbol></defs></svg>